<svg width="350" height="350" viewBox="0 0 350 350" fill="none" xmlns="http://www.w3.org/2000/svg">
<g clip-path="url(#clip0_122_830)">
<path d="M102.55 230.311C102.627 230.619 102.723 230.947 102.839 231.293L103.071 232.218C103.148 232.526 103.186 232.776 103.186 232.969C103.186 234.047 102.897 235.001 102.318 235.829C101.74 236.657 100.987 237.263 100.061 237.648C99.7142 237.687 99.3477 237.706 98.9619 237.706C98.6533 237.745 98.306 237.764 97.9202 237.764H96.8207L87.7929 237.88V247.528C87.7929 248.953 87.8219 250.387 87.8797 251.832C87.9376 253.276 88.0051 254.576 88.0823 255.731C88.1594 257.118 88.2559 258.447 88.3716 259.718H80.0383L80.2119 257.465C80.2505 256.579 80.2891 255.375 80.3276 253.854C80.3662 252.332 80.3855 250.301 80.3855 247.759V238.919C79.7296 239.497 78.9966 239.786 78.1864 239.786C77.5306 239.786 76.9615 239.632 76.4793 239.324C75.997 239.016 75.6016 238.592 75.2929 238.053L68.7536 237.706C67.4804 237.398 66.4195 236.753 65.5707 235.771C64.7219 234.789 64.2975 233.624 64.2975 232.276C64.2975 232.045 64.3168 231.833 64.3554 231.64C64.394 231.448 64.4519 231.255 64.529 231.062L65.9758 227.712C66.0529 226.864 66.2941 226.075 66.6992 225.343C67.1043 224.611 67.6154 223.976 68.2327 223.436L77.3184 206.625H77.3763C78.1093 205.277 78.9773 204.121 79.9804 203.158C80.9835 202.195 82.2759 201.714 83.8577 201.714C85.2466 201.714 86.4908 202.08 87.5904 202.812C88.6899 203.543 89.5097 204.506 90.0499 205.7L97.3415 219.97C98.6533 220.432 99.7335 221.241 100.582 222.396C101.431 223.552 101.855 224.881 101.855 226.383C101.855 226.999 101.759 227.654 101.566 228.347L102.55 230.311Z" fill="url(#paint0_linear_122_830)"/>
<path d="M306.881 230.311C306.959 230.619 307.055 230.947 307.171 231.293L307.402 232.218C307.479 232.526 307.518 232.776 307.518 232.969C307.518 234.047 307.229 235.001 306.65 235.829C306.071 236.657 305.319 237.263 304.393 237.648C304.046 237.687 303.679 237.706 303.293 237.706C302.985 237.745 302.638 237.764 302.252 237.764H301.152L292.124 237.88V247.528C292.124 248.953 292.153 250.387 292.211 251.832C292.269 253.276 292.337 254.576 292.414 255.731C292.491 257.118 292.587 258.447 292.703 259.718H284.37L284.543 257.465C284.582 256.579 284.621 255.375 284.659 253.854C284.698 252.332 284.717 250.301 284.717 247.759V238.919C284.061 239.497 283.328 239.786 282.518 239.786C281.862 239.786 281.293 239.632 280.811 239.324C280.328 239.016 279.933 238.592 279.624 238.053L273.085 237.706C271.812 237.398 270.751 236.753 269.902 235.771C269.053 234.789 268.629 233.624 268.629 232.276C268.629 232.045 268.648 231.833 268.687 231.64C268.725 231.448 268.783 231.255 268.861 231.062L270.307 227.712C270.384 226.864 270.626 226.075 271.031 225.343C271.436 224.611 271.947 223.976 272.564 223.436L281.65 206.625H281.708C282.441 205.277 283.309 204.121 284.312 203.158C285.315 202.195 286.607 201.714 288.189 201.714C289.578 201.714 290.822 202.08 291.922 202.812C293.021 203.543 293.841 204.506 294.381 205.7L301.673 219.97C302.985 220.432 304.065 221.241 304.914 222.396C305.763 223.552 306.187 224.881 306.187 226.383C306.187 226.999 306.09 227.654 305.898 228.347L306.881 230.311Z" fill="url(#paint1_linear_122_830)"/>
<path d="M282.634 236.66C282.694 236.902 282.769 237.159 282.859 237.43L283.04 238.155C283.1 238.397 283.13 238.593 283.13 238.744C283.13 239.59 282.904 240.337 282.453 240.986C282.002 241.636 281.415 242.111 280.693 242.413C280.423 242.444 280.137 242.459 279.836 242.459C279.596 242.489 279.325 242.504 279.024 242.504H278.167L271.128 242.594V250.159C271.128 251.277 271.151 252.402 271.196 253.534C271.241 254.667 271.294 255.686 271.354 256.592C271.414 257.679 271.489 258.721 271.579 259.718H265.082L265.218 257.951C265.248 257.256 265.278 256.313 265.308 255.12C265.338 253.927 265.353 252.334 265.353 250.341V243.41C264.842 243.863 264.27 244.089 263.638 244.089C263.127 244.089 262.683 243.969 262.307 243.727C261.931 243.485 261.623 243.153 261.382 242.73L256.284 242.459C255.291 242.217 254.464 241.711 253.802 240.941C253.141 240.171 252.81 239.257 252.81 238.2C252.81 238.019 252.825 237.853 252.855 237.702C252.885 237.551 252.93 237.4 252.99 237.249L254.118 234.622C254.178 233.957 254.366 233.338 254.682 232.765C254.998 232.191 255.397 231.693 255.878 231.27L262.962 218.088H263.007C263.578 217.031 264.255 216.125 265.037 215.37C265.819 214.615 266.827 214.237 268.06 214.237C269.143 214.237 270.113 214.524 270.97 215.098C271.828 215.672 272.467 216.427 272.888 217.363L278.573 228.552C279.596 228.914 280.438 229.548 281.1 230.454C281.761 231.36 282.092 232.402 282.092 233.58C282.092 234.063 282.017 234.577 281.867 235.12L282.634 236.66Z" fill="url(#paint2_linear_122_830)"/>
<path fill-rule="evenodd" clip-rule="evenodd" d="M171.407 244.557C211.864 244.557 248.296 247.858 273.762 253.129C298.669 253.294 318.723 260.755 318.723 269.934C318.723 277.209 306.127 283.404 288.501 285.744C284.295 286.988 279.559 288.162 274.358 289.252C274.493 289.946 274.561 290.648 274.561 291.356C274.561 307.373 239.739 320.358 196.783 320.358C158.137 320.358 126.074 309.848 120.03 296.075C68.4629 292.159 32 282.521 32 271.252C32 256.509 94.4145 244.557 171.407 244.557Z" fill="#E9E9E9"/>
<path d="M181.294 281.333C210.962 281.333 235.013 279.415 235.013 277.049C235.013 274.683 210.962 272.765 181.294 272.765C151.625 272.765 127.574 274.683 127.574 277.049C127.574 279.415 151.625 281.333 181.294 281.333Z" fill="#D8D8D8" fill-opacity="0.5"/>
<path d="M277.448 78.0026C277.448 81.9162 273.783 85.0471 269.154 85.0471H243.5C238.871 84.734 235.013 81.7596 235.013 77.6895C235.013 75.0282 236.749 72.6801 239.257 71.4277C239.064 70.9581 238.871 70.4885 238.871 70.0188C238.871 67.3576 241.378 65.0094 244.657 65.0094C246.008 65.0094 247.165 65.479 248.129 66.1052C250.444 62.5047 254.687 60 259.702 60C266.646 60 272.24 64.8529 272.24 70.8016V71.4277C275.326 72.5235 277.448 75.0282 277.448 78.0026Z" fill="url(#paint3_linear_122_830)"/>
<path d="M140.757 96.98C165.912 92.5187 184.535 95.352 196.618 105.495L196.866 105.703L197.357 106.119L197.843 106.535L198.327 106.952L198.808 107.371C198.888 107.441 198.968 107.512 199.048 107.582L199.529 108.006L200.252 108.652L200.738 109.091L201.228 109.536L201.974 110.221L202.736 110.929L203.519 111.664L204.054 112.17L204.881 112.956L209.666 117.561L210.272 118.139L211.032 118.858L211.573 119.364L212.093 119.846L212.596 120.308L212.924 120.606L213.409 121.042C218.001 125.144 221.901 127.805 226.484 129.723C231.684 131.9 237.729 133.042 245.357 133.176L245.733 133.181C257.796 133.339 269.324 136.52 278.977 141.755C280.42 142.537 281.797 143.356 283.092 144.196L283.521 144.476L283.944 144.758C284.293 144.994 284.637 145.231 284.973 145.469L285.373 145.755C285.505 145.85 285.637 145.946 285.767 146.041L286.154 146.329C286.409 146.521 286.66 146.713 286.906 146.905L287.272 147.194C287.875 147.675 288.448 148.157 288.988 148.637L289.308 148.925C289.729 149.308 290.129 149.69 290.506 150.068L290.785 150.351C292.522 152.142 293.738 153.855 294.293 155.343L294.335 155.46L294.01 155.574C293.57 154.325 292.631 152.898 291.285 151.391L291.035 151.117C290.824 150.887 290.603 150.656 290.374 150.423L290.094 150.143C289.668 149.722 289.214 149.297 288.733 148.871L288.408 148.586C287.806 148.064 287.165 147.54 286.488 147.017L286.115 146.732C285.989 146.637 285.863 146.542 285.735 146.447L285.349 146.163L284.955 145.879C284.757 145.738 284.556 145.597 284.353 145.456L283.943 145.175L283.528 144.895L283.106 144.616L282.678 144.339L282.244 144.063L281.804 143.789C281.657 143.698 281.508 143.607 281.359 143.517L280.908 143.247C280.454 142.977 279.992 142.711 279.523 142.449L279.051 142.188C278.972 142.144 278.893 142.101 278.813 142.058C269.312 136.906 257.983 133.752 246.12 133.532L245.729 133.526C237.881 133.423 231.68 132.272 226.351 130.041C221.728 128.106 217.798 125.424 213.18 121.299L212.856 121.009L212.364 120.563L211.86 120.1L211.514 119.781L210.98 119.282L210.611 118.935L210.035 118.389L208.441 116.862L205.501 114.027L204.644 113.206L203.818 112.421L203.284 111.916L202.502 111.183L201.741 110.476L201.243 110.018L200.752 109.569C200.67 109.494 200.589 109.421 200.508 109.347L199.782 108.693L199.301 108.265L198.821 107.841L198.342 107.422L197.86 107.005L197.377 106.589L196.889 106.174L196.397 105.759C184.524 95.7931 166.251 92.9314 141.567 97.1883L140.817 97.3195L140.757 96.98Z" stroke="#E3E3E3" stroke-dasharray="4 4"/>
<path d="M126.947 97.4337L120.895 105.034L103.467 81.4925L138.629 83.0394L133.373 90.1003L108.169 83.6458L130.862 93.4515L134.901 100.611L126.947 97.4337Z" fill="url(#paint4_linear_122_830)"/>
<path d="M225.774 259.717H140.11C133.55 259.717 128.234 254.422 128.234 247.886V131.153C128.234 124.618 133.55 119.322 140.11 119.322H225.774C232.334 119.322 237.65 124.618 237.65 131.153V247.886C237.65 254.422 232.334 259.717 225.774 259.717Z" fill="url(#paint5_linear_122_830)"/>
<path d="M220.543 263.013H138.749C132.212 263.013 126.915 257.696 126.915 251.134V135.815C126.915 129.253 132.212 123.936 138.749 123.936H220.543C227.08 123.936 232.377 129.253 232.377 135.815V251.138C232.377 257.696 227.08 263.013 220.543 263.013Z" fill="#DDDDDD"/>
<path d="M219.498 248.512H141.112C140.188 248.512 139.439 247.765 139.439 246.843V134.833C139.439 133.911 140.188 133.164 141.112 133.164H219.498C220.423 133.164 221.171 133.911 221.171 134.833V246.843C221.168 247.765 220.419 248.512 219.498 248.512Z" fill="#EDEDED"/>
<path d="M176.174 247.853C168.873 247.357 128.716 244.311 103.851 224.178C102.621 223.181 103.197 221.132 104.773 220.988C143.364 217.494 138.665 148.424 138.937 135.18C138.958 134.057 139.673 133.164 140.791 133.164H218.715C219.708 133.164 220.512 133.971 220.512 134.969L216.431 209.141C216.281 209.55 215.995 210.343 215.713 210.673L186.567 243.404C186.198 243.834 176.739 247.891 176.174 247.853Z" fill="white"/>
<path d="M187.269 222.118C191.748 222.4 205.09 222.503 216.557 209.623C213.84 223.173 196.389 247.686 173.714 247.853C186.743 241.133 186.245 228.692 185.832 223.112C185.786 222.457 186.618 222.076 187.269 222.118Z" fill="url(#paint6_linear_122_830)"/>
<path d="M197.937 123.936H163.826V135.8H197.937V123.936Z" fill="#7B7B7B"/>
<path fill-rule="evenodd" clip-rule="evenodd" d="M166.463 119.322H200.738L198.102 123.936H163.827L166.463 119.322Z" fill="#393939"/>
<path fill-rule="evenodd" clip-rule="evenodd" d="M182.282 108.776C185.559 108.776 188.215 111.432 188.215 114.708C188.215 117.984 185.559 120.64 182.282 120.64C179.006 120.64 176.35 117.984 176.35 114.708C176.35 111.432 179.006 108.776 182.282 108.776ZM182.282 111.412C180.462 111.412 178.987 112.888 178.987 114.708C178.987 116.528 180.462 118.004 182.282 118.004C184.103 118.004 185.578 116.528 185.578 114.708C185.578 112.888 184.103 111.412 182.282 111.412Z" fill="#393939"/>
</g>
<defs>
<linearGradient id="paint0_linear_122_830" x1="100.091" y1="259.022" x2="80.1955" y2="259.335" gradientUnits="userSpaceOnUse">
<stop stop-color="#E1E1E1" stop-opacity="0"/>
<stop offset="1" stop-color="#E6E6E6"/>
</linearGradient>
<linearGradient id="paint1_linear_122_830" x1="304.422" y1="259.022" x2="284.527" y2="259.335" gradientUnits="userSpaceOnUse">
<stop stop-color="#E1E1E1" stop-opacity="0"/>
<stop offset="1" stop-color="#E6E6E6"/>
</linearGradient>
<linearGradient id="paint2_linear_122_830" x1="280.716" y1="259.172" x2="265.205" y2="259.414" gradientUnits="userSpaceOnUse">
<stop stop-color="#E1E1E1" stop-opacity="0"/>
<stop offset="1" stop-color="#E6E6E6"/>
</linearGradient>
<linearGradient id="paint3_linear_122_830" x1="274.07" y1="84.7465" x2="252.39" y2="85.6083" gradientUnits="userSpaceOnUse">
<stop stop-color="#E1E1E1" stop-opacity="0"/>
<stop offset="1" stop-color="#E6E6E6"/>
</linearGradient>
<linearGradient id="paint4_linear_122_830" x1="131.705" y1="102.31" x2="99.4874" y2="73.6892" gradientUnits="userSpaceOnUse">
<stop stop-color="#B9B9B9"/>
<stop offset="1" stop-color="#E8E8E8"/>
</linearGradient>
<linearGradient id="paint5_linear_122_830" x1="196.971" y1="61.483" x2="196.971" y2="270.593" gradientUnits="userSpaceOnUse">
<stop stop-color="#BCBCBC"/>
<stop offset="1" stop-color="#EEEEEE"/>
</linearGradient>
<linearGradient id="paint6_linear_122_830" x1="216.557" y1="228.738" x2="188.75" y2="228.738" gradientUnits="userSpaceOnUse">
<stop stop-color="#BABABA"/>
<stop offset="1" stop-color="#ECECEC"/>
</linearGradient>
<clipPath id="clip0_122_830">
<rect width="350" height="350" fill="white"/>
</clipPath>
</defs>
</svg>
